<svg width="17" height="20" viewBox="0 0 17 20" fill="none" xmlns="http://www.w3.org/2000/svg">
<g clip-path="url(#clip0_6051_3392)">
<path d="M13.7687 10.6254C13.7968 13.652 16.4238 14.6592 16.4529 14.672C16.4307 14.743 16.0332 16.1074 15.0689 17.5166C14.2353 18.735 13.3701 19.9488 12.0073 19.974C10.6681 19.9986 10.2375 19.1799 8.70643 19.1799C7.17585 19.1799 6.69741 19.9489 5.42974 19.9987C4.11422 20.0485 3.11242 18.6812 2.27194 17.4673C0.554438 14.9842 -0.758088 10.4508 1.0043 7.39061C1.87982 5.87092 3.44444 4.90859 5.14269 4.88391C6.4345 4.85927 7.65378 5.753 8.44352 5.753C9.23275 5.753 10.7144 4.67821 12.2721 4.83606C12.9242 4.8632 14.7547 5.09947 15.9301 6.81993C15.8354 6.87864 13.746 8.09499 13.7687 10.6254V10.6254ZM11.2519 3.1933C11.9503 2.34789 12.4204 1.171 12.2921 0C11.2854 0.0404618 10.0681 0.670851 9.34596 1.5158C8.69882 2.26404 8.13207 3.46164 8.28499 4.60946C9.4071 4.69628 10.5534 4.03925 11.2519 3.1933Z" fill="black"/>
</g>
<defs>
<clipPath id="clip0_6051_3392">
<rect width="16.288" height="20" fill="white" transform="translate(0.166504)"/>
</clipPath>
</defs>
</svg>
