<svg width="23" height="26" viewBox="0 0 23 26" fill="none" xmlns="http://www.w3.org/2000/svg">
<path d="M22 10.6663H1M16.1667 1.33301V5.99967M6.83333 1.33301V5.99967M6.6 24.6663H16.4C18.3602 24.6663 19.3403 24.6663 20.089 24.2849C20.7475 23.9493 21.283 23.4139 21.6185 22.7553C22 22.0066 22 21.0265 22 19.0663V9.26634C22 7.30616 22 6.32607 21.6185 5.57737C21.283 4.91881 20.7475 4.38337 20.089 4.04782C19.3403 3.66634 18.3602 3.66634 16.4 3.66634H6.6C4.63982 3.66634 3.65972 3.66634 2.91103 4.04782C2.25247 4.38337 1.71703 4.91881 1.38148 5.57737C1 6.32607 1 7.30616 1 9.26634V19.0663C1 21.0265 1 22.0066 1.38148 22.7553C1.71703 23.4139 2.25247 23.9493 2.91103 24.2849C3.65972 24.6663 4.63982 24.6663 6.6 24.6663Z" stroke="#0D0D0D" stroke-width="2" stroke-linecap="round" stroke-linejoin="round"/>
<path d="M22 10.6663H1M16.1667 1.33301V5.99967M6.83333 1.33301V5.99967M6.6 24.6663H16.4C18.3602 24.6663 19.3403 24.6663 20.089 24.2849C20.7475 23.9493 21.283 23.4139 21.6185 22.7553C22 22.0066 22 21.0265 22 19.0663V9.26634C22 7.30616 22 6.32607 21.6185 5.57737C21.283 4.91881 20.7475 4.38337 20.089 4.04782C19.3403 3.66634 18.3602 3.66634 16.4 3.66634H6.6C4.63982 3.66634 3.65972 3.66634 2.91103 4.04782C2.25247 4.38337 1.71703 4.91881 1.38148 5.57737C1 6.32607 1 7.30616 1 9.26634V19.0663C1 21.0265 1 22.0066 1.38148 22.7553C1.71703 23.4139 2.25247 23.9493 2.91103 24.2849C3.65972 24.6663 4.63982 24.6663 6.6 24.6663Z" stroke="white" stroke-opacity="0.4" stroke-width="2" stroke-linecap="round" stroke-linejoin="round"/>
</svg>
