<svg width="16" height="16" viewBox="0 0 16 16" fill="none" xmlns="http://www.w3.org/2000/svg">
<rect width="16" height="16" rx="8" fill="#0B99FF"/>
<path d="M5.00185 11.2253C4.87883 11.3487 4.87843 11.5493 5.00972 11.6638C5.39605 12.0007 5.83527 12.2729 6.31041 12.469C6.8829 12.7052 7.49631 12.8264 8.11562 12.8256C8.73493 12.8248 9.34802 12.702 9.91988 12.4642C10.3945 12.2669 10.833 11.9936 11.2185 11.6557C11.3494 11.5408 11.3485 11.3402 11.2252 11.2172L10.4192 10.4133C10.2958 10.2903 10.097 10.292 9.96154 10.4015C9.74336 10.5778 9.50069 10.7224 9.24067 10.8306C8.88335 10.9791 8.50027 11.0558 8.1133 11.0563C7.72632 11.0568 7.34304 10.9811 6.98533 10.8335C6.72503 10.7261 6.48198 10.5821 6.26334 10.4064C6.12755 10.2972 5.92877 10.296 5.80574 10.4193L5.00185 11.2253Z" fill="white"/>
<path fill-rule="evenodd" clip-rule="evenodd" d="M10.5523 6.86161C10.3535 7.06033 10.4943 7.40011 10.7753 7.40011H12.4473C12.6215 7.40011 12.7627 7.54134 12.7627 7.71556V8.6619C12.7627 8.83612 12.6215 8.97735 12.4473 8.97735H3.77248C3.59826 8.97735 3.45703 8.83612 3.45703 8.6619V7.71556C3.45703 7.54134 3.59826 7.40011 3.77248 7.40011H5.44442C5.72546 7.40011 5.8662 7.06033 5.66748 6.86161L4.38424 5.57837C4.26105 5.45518 4.26105 5.25545 4.38424 5.13226L5.0534 4.4631C5.17659 4.33991 5.37632 4.33991 5.49951 4.4631L6.78275 5.74634C6.98147 5.94506 7.32125 5.80432 7.32125 5.52329V3.77248C7.32125 3.59826 7.46248 3.45703 7.6367 3.45703H8.58304C8.75725 3.45703 8.89848 3.59826 8.89848 3.77248V5.52329C8.89848 5.80432 9.23827 5.94506 9.43699 5.74634L10.7202 4.4631C10.8434 4.33991 11.0431 4.33991 11.1663 4.4631L11.8355 5.13226C11.9587 5.25545 11.9587 5.45518 11.8355 5.57837L10.5523 6.86161Z" fill="white"/>
</svg>
