<svg width="21" height="20" viewBox="0 0 21 20" fill="none" xmlns="http://www.w3.org/2000/svg">
<g clip-path="url(#clip0_6051_1602)">
<path d="M20.4895 10.1873C20.4895 9.36792 20.4214 8.76998 20.2742 8.1499H10.6992V11.8482H16.3195C16.2062 12.7673 15.5943 14.1514 14.2346 15.0815L14.2155 15.2053L17.2429 17.4972L17.4527 17.5176C19.3789 15.7791 20.4895 13.2213 20.4895 10.1873" fill="#4285F4"/>
<path d="M10.6993 19.9312C13.4527 19.9312 15.7643 19.0453 17.4527 17.5173L14.2346 15.0812C13.3734 15.6681 12.2176 16.0777 10.6993 16.0777C8.00243 16.0777 5.71352 14.3394 4.89759 11.9365L4.77799 11.9464L1.63003 14.3271L1.58887 14.439C3.26588 17.6944 6.71061 19.9312 10.6993 19.9312Z" fill="#34A853"/>
<path d="M4.89796 11.9368C4.68267 11.3167 4.55808 10.6523 4.55808 9.96583C4.55808 9.27927 4.68267 8.61492 4.88664 7.99484L4.88094 7.86278L1.69353 5.44385L1.58924 5.49232C0.898065 6.84324 0.501465 8.36026 0.501465 9.96583C0.501465 11.5714 0.898065 13.0884 1.58924 14.4393L4.89796 11.9368" fill="#FBBC05"/>
<path d="M10.6993 3.85336C12.6142 3.85336 13.906 4.66168 14.6425 5.33718L17.5207 2.59107C15.753 0.985496 13.4527 0 10.6993 0C6.7106 0 3.26588 2.23672 1.58887 5.49214L4.88626 7.99466C5.71352 5.59183 8.00242 3.85336 10.6993 3.85336" fill="#EB4335"/>
</g>
<defs>
<clipPath id="clip0_6051_1602">
<rect x="0.5" width="20" height="20" rx="4" fill="white"/>
</clipPath>
</defs>
</svg>
