<svg width="27" height="25" viewBox="0 0 27 25" fill="none" xmlns="http://www.w3.org/2000/svg">
<path d="M10.0002 23.5V14.8667C10.0002 14.2133 10.0002 13.8866 10.1273 13.637C10.2392 13.4175 10.4177 13.239 10.6372 13.1272C10.8867 13 11.2134 13 11.8668 13H15.1335C15.7869 13 16.1136 13 16.3632 13.1272C16.5827 13.239 16.7612 13.4175 16.873 13.637C17.0002 13.8866 17.0002 14.2133 17.0002 14.8667V23.5M1.8335 10.0833L12.3802 2.17333C12.7818 1.87211 12.9826 1.72149 13.2032 1.66344C13.3979 1.61219 13.6025 1.61219 13.7972 1.66344C14.0177 1.72149 14.2185 1.87211 14.6202 2.17333L25.1668 10.0833M4.16683 8.33333V19.7667C4.16683 21.0735 4.16683 21.7269 4.42115 22.226C4.64486 22.665 5.00181 23.022 5.44086 23.2457C5.93998 23.5 6.59338 23.5 7.90017 23.5H19.1002C20.407 23.5 21.0604 23.5 21.5595 23.2457C21.9985 23.022 22.3555 22.665 22.5792 22.226C22.8335 21.7269 22.8335 21.0735 22.8335 19.7667V8.33333L15.7402 3.01333C14.9369 2.41088 14.5353 2.10965 14.0942 1.99354C13.7048 1.89104 13.2955 1.89104 12.9062 1.99354C12.4651 2.10965 12.0634 2.41088 11.2602 3.01333L4.16683 8.33333Z" stroke="#0D0D0D" stroke-width="2" stroke-linecap="round" stroke-linejoin="round"/>
<path d="M10.0002 23.5V14.8667C10.0002 14.2133 10.0002 13.8866 10.1273 13.637C10.2392 13.4175 10.4177 13.239 10.6372 13.1272C10.8867 13 11.2134 13 11.8668 13H15.1335C15.7869 13 16.1136 13 16.3632 13.1272C16.5827 13.239 16.7612 13.4175 16.873 13.637C17.0002 13.8866 17.0002 14.2133 17.0002 14.8667V23.5M1.8335 10.0833L12.3802 2.17333C12.7818 1.87211 12.9826 1.72149 13.2032 1.66344C13.3979 1.61219 13.6025 1.61219 13.7972 1.66344C14.0177 1.72149 14.2185 1.87211 14.6202 2.17333L25.1668 10.0833M4.16683 8.33333V19.7667C4.16683 21.0735 4.16683 21.7269 4.42115 22.226C4.64486 22.665 5.00181 23.022 5.44086 23.2457C5.93998 23.5 6.59338 23.5 7.90017 23.5H19.1002C20.407 23.5 21.0604 23.5 21.5595 23.2457C21.9985 23.022 22.3555 22.665 22.5792 22.226C22.8335 21.7269 22.8335 21.0735 22.8335 19.7667V8.33333L15.7402 3.01333C14.9369 2.41088 14.5353 2.10965 14.0942 1.99354C13.7048 1.89104 13.2955 1.89104 12.9062 1.99354C12.4651 2.10965 12.0634 2.41088 11.2602 3.01333L4.16683 8.33333Z" stroke="white" stroke-opacity="0.4" stroke-width="2" stroke-linecap="round" stroke-linejoin="round"/>
</svg>
