<svg width="17" height="14" viewBox="0 0 17 14" fill="none" xmlns="http://www.w3.org/2000/svg">
<path d="M16 7.00033L6 7.00033M16 2.00033L6 2.00033M16 12.0003L6 12.0003M2.66667 7.00033C2.66667 7.46056 2.29357 7.83366 1.83333 7.83366C1.3731 7.83366 1 7.46056 1 7.00033C1 6.54009 1.3731 6.16699 1.83333 6.16699C2.29357 6.16699 2.66667 6.54009 2.66667 7.00033ZM2.66667 2.00033C2.66667 2.46056 2.29357 2.83366 1.83333 2.83366C1.3731 2.83366 1 2.46056 1 2.00033C1 1.54009 1.3731 1.16699 1.83333 1.16699C2.29357 1.16699 2.66667 1.54009 2.66667 2.00033ZM2.66667 12.0003C2.66667 12.4606 2.29357 12.8337 1.83333 12.8337C1.3731 12.8337 1 12.4606 1 12.0003C1 11.5401 1.3731 11.167 1.83333 11.167C2.29357 11.167 2.66667 11.5401 2.66667 12.0003Z" stroke="white" stroke-width="2" stroke-linecap="round" stroke-linejoin="round"/>
</svg>
