<svg width="27" height="26" viewBox="0 0 27 26" fill="none" xmlns="http://www.w3.org/2000/svg">
<path d="M5.70251 21.6778C6.41222 20.0057 8.06924 18.833 10.0002 18.833H17.0002C18.9311 18.833 20.5881 20.0057 21.2978 21.6778M18.1668 10.083C18.1668 12.6603 16.0775 14.7497 13.5002 14.7497C10.9228 14.7497 8.8335 12.6603 8.8335 10.083C8.8335 7.50568 10.9228 5.41634 13.5002 5.41634C16.0775 5.41634 18.1668 7.50568 18.1668 10.083ZM25.1668 12.9997C25.1668 19.443 19.9435 24.6663 13.5002 24.6663C7.05684 24.6663 1.8335 19.443 1.8335 12.9997C1.8335 6.55635 7.05684 1.33301 13.5002 1.33301C19.9435 1.33301 25.1668 6.55635 25.1668 12.9997Z" stroke="#0D0D0D" stroke-width="2" stroke-linecap="round" stroke-linejoin="round"/>
<path d="M5.70251 21.6778C6.41222 20.0057 8.06924 18.833 10.0002 18.833H17.0002C18.9311 18.833 20.5881 20.0057 21.2978 21.6778M18.1668 10.083C18.1668 12.6603 16.0775 14.7497 13.5002 14.7497C10.9228 14.7497 8.8335 12.6603 8.8335 10.083C8.8335 7.50568 10.9228 5.41634 13.5002 5.41634C16.0775 5.41634 18.1668 7.50568 18.1668 10.083ZM25.1668 12.9997C25.1668 19.443 19.9435 24.6663 13.5002 24.6663C7.05684 24.6663 1.8335 19.443 1.8335 12.9997C1.8335 6.55635 7.05684 1.33301 13.5002 1.33301C19.9435 1.33301 25.1668 6.55635 25.1668 12.9997Z" stroke="white" stroke-opacity="0.4" stroke-width="2" stroke-linecap="round" stroke-linejoin="round"/>
</svg>
