<svg width="14" height="14" viewBox="0 0 14 14" fill="none" xmlns="http://www.w3.org/2000/svg">
<path d="M7.43023 0.183288C7.15799 0.0534874 6.84171 0.0534874 6.56948 0.183288C6.33413 0.295498 6.20438 0.490323 6.13894 0.597204C6.07129 0.707696 6.00185 0.848449 5.93417 0.98564L4.49701 3.89716L1.28231 4.36704C1.13098 4.38912 0.975711 4.41179 0.849768 4.44207C0.727927 4.47137 0.502654 4.53474 0.32338 4.72397C0.115986 4.94288 0.0184511 5.24369 0.0579315 5.54264C0.0920587 5.80107 0.237288 5.98456 0.318755 6.07978C0.402967 6.17821 0.5154 6.28768 0.624976 6.39436L2.95017 8.6591L2.40153 11.8579C2.37563 12.0088 2.34906 12.1635 2.33883 12.2927C2.32894 12.4176 2.31937 12.6516 2.44384 12.8807C2.58781 13.1458 2.84373 13.3317 3.14031 13.3867C3.39671 13.4342 3.61623 13.3528 3.73199 13.3047C3.85169 13.2551 3.99064 13.182 4.12608 13.1107L6.99985 11.5994L9.87364 13.1107C10.0091 13.182 10.148 13.2551 10.2677 13.3047C10.3835 13.3528 10.603 13.4342 10.8594 13.3867C11.156 13.3317 11.4119 13.1458 11.5559 12.8807C11.6803 12.6516 11.6708 12.4176 11.6609 12.2927C11.6506 12.1635 11.6241 12.0088 11.5982 11.858L11.0495 8.6591L13.3748 6.39433C13.4843 6.28766 13.5967 6.1782 13.681 6.07978C13.7624 5.98456 13.9076 5.80107 13.9418 5.54264C13.9813 5.24369 13.8837 4.94288 13.6763 4.72397C13.4971 4.53474 13.2718 4.47137 13.1499 4.44207C13.024 4.41179 12.8687 4.38912 12.7174 4.36704L9.50269 3.89716L8.06556 0.98569C7.99787 0.848489 7.92842 0.707704 7.86076 0.597204C7.79533 0.490323 7.66557 0.295498 7.43023 0.183288Z" fill="#0D0D0D"/>
</svg>
